<svg xmlns="http://www.w3.org/2000/svg" width="1em" height="1em" fill="none" viewBox="0 0 80 25" class="svg-filled w-[130px] text-[40px]"><path fill="url(#logotype_svg__a)" d="m32.447 17.734.62-2.101H30.1c-.085 0-.136-.076-.106-.177l1.444-4.888c.025-.096.12-.177.206-.177h2.59l.706-1.106.297-1.01h-4.612c-.56 0-1.07.42-1.256 1.045l-2.17 7.373c-.187.626.08 1.04.636 1.04zm1.438-2.101-.62 2.1h4.627c.55 0 1.06-.424 1.24-1.04l.657-2.232c.217-.727.212-1.106-.222-1.52l-1.862-1.783c-.035-.03-.04-.085-.025-.146l.13-.444c.031-.096.122-.177.213-.177h2.588l.707-1.116.293-1h-4.613c-.555 0-1.07.42-1.251 1.045l-.61 2.06c-.218.733-.202 1.097.221 1.52l1.867 1.768c.036.03.046.086.026.147l-.192.641c-.025.101-.121.177-.207.177zm6.626 0-.621 2.1h2.16l.62-2.1z"></path><path fill="url(#logotype_svg__b)" d="m46.157 8.275-2.79 9.459h5.328c.555 0 1.06-.425 1.246-1.04l2.17-7.374c.182-.62-.075-1.045-.625-1.045zm1.953 2.116h1.105c.086 0 .136.08.106.177l-1.438 4.888c-.03.101-.127.177-.212.177h-1.105c-.086 0-.132-.076-.106-.177l1.443-4.888c.03-.096.12-.177.207-.177m8.402 7.343.615-2.101H54.15c-.086 0-.136-.076-.106-.177l.394-1.343c.03-.096.126-.177.212-.177h2.538l.62-2.1h-2.543c-.086 0-.13-.082-.1-.178l.317-1.09c.03-.096.126-.177.212-.177h2.589l.716-1.106.298-1.01h-5.56l-2.786 9.458zm4.809-9.459-3.69 8.428-.307 1.03h2.437l.702-1.818c.03-.085.12-.156.202-.156h1.206c.08 0 .126.07.105.162l-.383 1.813h2.447l.303-1.03 1.277-8.429zm.065 5.191 1.105-2.919c.036-.09.127-.156.207-.156h.298c.08 0 .131.066.11.156l-.605 2.92a.24.24 0 0 1-.08.13.19.19 0 0 1-.137.061h-.802q-.067 0-.096-.06-.03-.055 0-.132m3.724 4.268h5.183l.62-2.101h-2.609c-.085 0-.13-.076-.1-.177l2.114-7.181h-2.422zm6.49-2.101-.616 2.1h4.622c.555 0 1.06-.424 1.242-1.04l.66-2.232c.213-.727.207-1.106-.221-1.52l-1.863-1.783c-.035-.03-.045-.085-.025-.146l.132-.444c.025-.096.12-.177.206-.177h2.589l.712-1.116.292-1h-4.612c-.56 0-1.07.42-1.257 1.045l-.605 2.06c-.217.733-.207 1.097.222 1.52l1.862 1.768c.035.03.045.086.03.147l-.192.641c-.03.101-.12.177-.206.177z"></path><path fill="url(#logotype_svg__c)" fill-rule="evenodd" d="M8.347 1.295c5.426-1.143 9.317.44 12.025 3.018l-.522.512-1.264 1.233C15.9 3.25 11.787 1.385 8.347 1.295m13.9 5.215c1.895 2.757 2.317 5.746 1.424 9.176l-5.345-5.155 3.078.863c0-.552.02-.01-.1-.542a8.9 8.9 0 0 0-.973-2.497l1.465-1.404z" clip-rule="evenodd"></path><path fill="url(#logotype_svg__d)" fill-rule="evenodd" d="M16.49 23.95c-4.612.953-8.384-.03-11.071-2.065l2.196-1.445c2.598 2.166 5.907 3.42 8.876 3.51M3.384 19.91C.876 16.769.073 12.437 1.427 8.546l5.015 5.074-3.08-.862c0 1.825.582 3.44 1.635 4.914a17 17 0 0 0-1.614 2.237" clip-rule="evenodd"></path><path fill="url(#logotype_svg__e)" fill-rule="evenodd" d="M3.383 2.338 9.52 8.325l1.465-1.514.902.902-.973 1.053-2.637 2.718v.01l-1.434 1.424-.903-.852s1.625-1.726 1.585-1.735L1.367 4.414a.99.99 0 0 1-.03-1.394l.642-.662c.19-.19.421-.3.702-.3.27-.001.501.09.702.28m18.082 0L19.85 3.902l-1.986 1.946-2.537 2.477-1.474-1.514-.903.902 1.184 1.284 2.467 2.527 1.394 1.394.902-.852s-1.624-1.726-1.574-1.735l2.346-2.257 2.126-2.046 1.675-1.615a.99.99 0 0 0 .03-1.394l-.641-.661a.96.96 0 0 0-.692-.3c-.27 0-.511.09-.702.28m-7.532 6.87L12.49 10.56l-.07.01-.07-.01-1.424-1.343-1.885 3.028.4.412-3.238 2.818c-4.464 4.362-4.133 7.702-4.133 7.702 2.798-1.846 5.586-3.69 8.374-5.536l5.356-5.396zM9.04 17.43l-.632.452a.63.63 0 0 1-.722-1.033l.622-.441c.29-.2.682-.13.882.15.201.28.13.672-.15.872m7.04-4.192 2.558 2.236c4.462 4.363 4.132 7.703 4.132 7.703-2.788-1.846-5.586-3.69-8.374-5.536l-1.344-1.354zm-.34 4.242.621.441a.628.628 0 1 0 .732-1.023l-.632-.45a.627.627 0 0 0-.872.15.64.64 0 0 0 .15.882" clip-rule="evenodd"></path><defs><linearGradient id="logotype_svg__a" x1="34.905" x2="34.905" y1="10.211" y2="17.139" gradientUnits="userSpaceOnUse"><stop stop-color="#fff"></stop><stop offset="1" stop-color="#D6D6D6"></stop></linearGradient><linearGradient id="logotype_svg__b" x1="64.847" x2="64.847" y1="17.778" y2="8.275" gradientUnits="userSpaceOnUse"><stop stop-color="#006FBF"></stop><stop offset="1" stop-color="#0FF"></stop></linearGradient><linearGradient id="logotype_svg__c" x1="14.372" x2="21.002" y1="2.607" y2="16.02" gradientUnits="userSpaceOnUse"><stop stop-color="#fff"></stop><stop offset="1" stop-color="#D6D6D6"></stop></linearGradient><linearGradient id="logotype_svg__d" x1="6.778" x2="14.15" y1="10.35" y2="24.267" gradientUnits="userSpaceOnUse"><stop stop-color="#fff"></stop><stop offset="1" stop-color="#D6D6D6"></stop></linearGradient><linearGradient id="logotype_svg__e" x1="12.424" x2="13.4" y1="23.297" y2="3.418" gradientUnits="userSpaceOnUse"><stop stop-color="#006FBF"></stop><stop offset="1" stop-color="#0FF"></stop></linearGradient></defs></svg>