<?xml version="1.0" encoding="UTF-8"?>
<svg xmlns="http://www.w3.org/2000/svg" viewBox="0 0 424.91 78">
  <path fill="#fff" d="m134 28 3.45-7s-3.45-2.77-10.07-2.77c-7.87 0-21.45 6.57-21.45 23.78s15.69 18.52 25.77 13.71l-1.44-7.59A25.7 25.7 0 0 1 120.13 50c-9.64 0-6.19-24 6.19-24 5.61 0 7.63 2 7.63 2m32.53-6.7-3.88 7.43s-2.74-2.62-9.07-2.62-8.5 6-2.16 7.58S164 38.93 164 45.64s-5 12.4-16 12.4-13.82-3.65-13.82-3.65l3-6.85a22.35 22.35 0 0 0 11.09 2.62c4 0 6.62-.73 6.62-3.5s-1.73-3.79-5-4.66-14.14-4-11.09-13.86c3.2-10.21 14.2-12.54 27.68-6.85M194.84 28l3.6-7.43s-3.74-2.19-10.22-2.19-19.87 2.92-21.45 23 21.59 18.82 28.79 13.27l3-19H186.2l-3.2 7.66h6l-.57 5S187.36 50 182.32 50c-10.37 0-9.07-23.78 4.6-23.78 6.34 0 7.92 1.75 7.92 1.75m20.79 22.83c-11.1 0-6.55-24.61 5.39-24.61s7 24.61-5.39 24.61M221 18.47c-15.83 0-19.89 17.72-19.89 23.26s1.16 16.54 13.92 16.54 20.31-10.83 20.31-23.17c0-10.92-4.73-16.63-14.34-16.63"/>
  <path fill="#e9b10e" d="M398.12 20.44h26.79l-2.67 7.43H406l-1.24 6.87h13.55l-1.49 7.62h-13.36L402 50.48h18L418.51 58h-26.86Zm-149.35 0h26.79l-2.67 7.43h-16.22l-1.25 6.87H269l-1.49 7.62h-13.39l-1.49 8.12h18L269.16 58h-26.85Z"/>
  <path fill="#e9b10e" d="M338.87 33.44c-.91 5.15-7.2 4.84-7.2 4.84h-4.25L328.09 28h5.5c.83 0 5.19.27 4.28 5.42m-3.16-13.26-14.26.17-6.54 37.77h9L325 46.43h5.14s14.65.84 16.83-13.27c1.65-10.75-7.21-13-12.27-13M382 33.41c-.91 4.23-7.13 3.92-7.13 3.92h-4.25l1.59-9.3h5.5c.84 0 5.39.31 4.29 5.42m1.74 8.46s8.12-2.23 8.12-11.07-7-10.61-10-10.61-17-.15-17-.15l-6.53 38h9.11l2.27-13.37h5.54s4.4 3.69 5.23 13h8.72s-.45-11.68-5.46-15.75m-22.42-21.73-6.8 38h-9l6.46-38Z"/>
  <path fill="#e9b10e" d="m289.31 57.89 6.63-37.71h12.19l3 19.74L304 20.23h12.6l-6.55 37.71h-9l4.31-23.52-9.27 16.88h-7.71l-3.32-18.47-4 24.94Z"/>
  <path fill="#363332" d="M78 39A39 39 0 1 1 39 .3 38.85 38.85 0 0 1 78 39"/>
  <path fill="#e9b10e" d="M69.91 37A33.27 33.27 0 1 1 36.65 4a33.14 33.14 0 0 1 33.26 33"/>
  <path fill="#fff" d="M62.7 34.83A29.66 29.66 0 1 1 33 5.39a29.55 29.55 0 0 1 29.7 29.44"/>
  <path fill="#e9b10e" d="m9.1 23.17 9-7.42a5.88 5.88 0 0 1 3.72-1.33H33.2a2 2 0 0 1 1.88 1.42L39.92 33 28 42.79l-11.22-2.63a3.92 3.92 0 0 1-2.68-2.22L8.56 25.48a2 2 0 0 1 .54-2.31"/>
  <path fill="#363332" d="m10.48 25.12 11.24.48a2.91 2.91 0 0 1 2.64 1.95l4.36 12.39a1 1 0 0 1-1.14 1.28l-10-2.31a3.88 3.88 0 0 1-2.69-2.21L10 25.8a.49.49 0 0 1 .24-.64.43.43 0 0 1 .24-.04"/>
  <path fill="#363332" d="m10.61 23.43 7.6-6A7.8 7.8 0 0 1 23 15.72l9.33-.07a.48.48 0 0 1 .49.48.5.5 0 0 1-.15.36l-7.46 7.2a3.9 3.9 0 0 1-2.88 1.1l-11.44-.49a.49.49 0 0 1-.28-.87"/>
  <path fill="#363332" d="m26.13 22.6 7.45-7.19a.49.49 0 0 1 .69 0 .5.5 0 0 1 .11.21l3.24 11.29a3.9 3.9 0 0 1-.73 3.53l-6.32 7.8a.49.49 0 0 1-.69.07.5.5 0 0 1-.15-.22l-4.3-12.43a2.93 2.93 0 0 1 .7-3.06"/>
  <path fill="#fff" d="M22.28 20.76c.92-.45 1.47-1.21 1.23-1.69s-1.17-.52-2.08-.07-1.43 1.2-1.24 1.69 1.17.51 2.09.07m-3.66 16.73c.45-.44.27-1.36-.41-2.06s-1.59-.91-2-.48-.27 1.36.41 2.06 1.55.91 2 .48m3.89-6.91c.45-.43.27-1.35-.4-2s-1.59-.92-2-.48-.27 1.36.4 2.06 1.55.84 2 .42M31 36.87a1.58 1.58 0 0 0 1-2c-.17-1-.88-1.63-1.58-1.51a1.58 1.58 0 0 0-1 2c.18.96.88 1.64 1.58 1.51m4.73-5.37a1.58 1.58 0 0 0 1-2c-.17-1-.88-1.63-1.58-1.51a1.58 1.58 0 0 0-1 2c.18 1.01.85 1.63 1.58 1.51m-3.61-1.17a1.58 1.58 0 0 0 1-2c-.17-.95-.87-1.63-1.57-1.51a1.58 1.58 0 0 0-1 2c.16.96.87 1.64 1.57 1.51m-4-1.49a1.58 1.58 0 0 0 1-1.95c-.17-1-.88-1.64-1.58-1.51a1.57 1.57 0 0 0-1 1.95c.22.96.92 1.67 1.62 1.51Zm5.25-5.28a1.58 1.58 0 0 0 1-2c-.17-1-.87-1.63-1.58-1.51a1.58 1.58 0 0 0-1 2c.21.95.91 1.64 1.62 1.51Z"/>
  <path fill="#e9b10e" d="m26.09 26.93 13.81-1.71a5.87 5.87 0 0 1 3.83.84l11.69 7.31a2 2 0 0 1 .84 2.23l-5 16.1a4 4 0 0 1-2.43 2.53L35.29 59a2 2 0 0 1-2-.48l-9.84-10a5.86 5.86 0 0 1-1.59-5.12l2.54-14.86a2 2 0 0 1 1.69-1.61"/>
  <path fill="#363332" d="m41.63 38.65 12.19-2.45a.49.49 0 0 1 .58.39.7.7 0 0 1 0 .24l-4.16 13.48a3.89 3.89 0 0 1-2.42 2.53L36.3 57a.49.49 0 0 1-.63-.3.4.4 0 0 1 0-.27l3.7-15.55a2.94 2.94 0 0 1 2.26-2.23M28 27.91l12.35-1.25a3.87 3.87 0 0 1 2.42.54L53 33.41a1 1 0 0 1 .33 1.34 1 1 0 0 1-.65.45l-11.74 2.33a3.9 3.9 0 0 1-3-.62l-10.42-7.22a1 1 0 0 1 .48-1.78m-1.9 2 10.76 7.57A2.91 2.91 0 0 1 38 40.55l-3.83 15.72a.5.5 0 0 1-.59.36.5.5 0 0 1-.23-.12l-8.55-8.27A5.84 5.84 0 0 1 23.1 43l2.22-12.81a.49.49 0 0 1 .56-.4.7.7 0 0 1 .2.1Z"/>
  <path fill="#fff" d="M39.78 35.5c1.18.17 2.2-.16 2.28-.74s-.81-1.18-2-1.34-2.2.16-2.28.74.82 1.18 2 1.34m.51-2.89c1.18.16 2.2-.17 2.28-.75s-.81-1.17-2-1.34-2.2.17-2.28.74.82 1.18 2 1.35m8.33 2c1.18.16 2.2-.17 2.28-.75s-.81-1.17-2-1.34-2.2.17-2.28.74.82 1.14 2 1.31Zm-16.43-3.96c1.18.17 2.2-.17 2.29-.74s-.81-1.18-2-1.34-2.2.16-2.28.74.8 1.17 1.99 1.34m8.59-.71c1.18.17 2.2-.17 2.28-.74s-.81-1.18-2-1.35-2.2.17-2.28.75.82 1.17 2 1.34M27.43 37c.73 0 1.29-.93 1.25-2s-.68-2-1.38-1.95S26 34 26 35.07 26.7 37 27.43 37m6.75 5.09c.73 0 1.29-.93 1.25-2s-.66-2-1.39-1.93-1.29.93-1.25 2 .66 1.95 1.39 1.93M26.63 42c.73 0 1.29-.93 1.25-2s-.66-2-1.39-1.93-1.29.93-1.25 2 .66 2 1.39 1.93m6.6 5.48c.73 0 1.29-.93 1.25-2s-.66-2-1.39-1.93-1.29.94-1.25 2 .66 2 1.39 1.97Zm-7.43-.73c.73 0 1.29-.93 1.25-2s-.66-2-1.38-1.93-1.29.93-1.26 2 .66 1.99 1.39 1.97Zm6.42 6c.72 0 1.28-.93 1.25-2s-.66-1.95-1.39-1.93-1.29.93-1.25 2 .66 1.96 1.39 1.93m8.7-8.64c.68.43 1.73 0 2.33-1a1.85 1.85 0 0 0-.13-2.53c-.69-.43-1.73 0-2.34 1s-.55 2.1.14 2.53m-2.32 9.68c.69.43 1.73 0 2.34-1a1.84 1.84 0 0 0-.14-2.53c-.68-.43-1.73 0-2.34 1s-.54 2.1.14 2.53M49.29 42c.69.43 1.73 0 2.34-1s.55-2.11-.14-2.54-1.73 0-2.34 1-.54 2.13.14 2.54m-2.6 4.91c.69.44 1.73 0 2.34-1s.54-2.11-.14-2.54-1.73 0-2.34 1-.54 2.1.14 2.54Z"/>
</svg>
