<svg viewBox="0 0 842 198" xmlns="http://www.w3.org/2000/svg" xmlns:xlink="http://www.w3.org/1999/xlink"><linearGradient id="a"><stop offset="0" stop-color="#2dd4df"/><stop offset="1" stop-color="#1fb8e2"/></linearGradient><linearGradient id="b" x1="-30.953853%" x2="586.354031%" xlink:href="#a" y1="38.520636%" y2="38.520636%"/><linearGradient id="c" x1="-161.592686%" x2="556.672677%" xlink:href="#a" y1="49.408202%" y2="49.408202%"/><linearGradient id="d" x1="-164.953467%" x2="277.711599%" xlink:href="#a" y1="38.520636%" y2="38.520636%"/><linearGradient id="e" x1="-381.73776%" x2="225.866536%" xlink:href="#a" y1="39.614255%" y2="39.614255%"/><linearGradient id="f" x1="-388.745452%" x2="100.000704%" xlink:href="#a" y1="38.520636%" y2="38.520636%"/><linearGradient id="g" x1=".001659%" x2="1994.25307%" xlink:href="#a" y1="-45.643504%" y2="-45.643504%"/><mask id="h" fill="#fff"><path d="m0 .722h841.8955v197.278h-841.8955z" fill="#fff" fill-rule="evenodd"/></mask><mask id="i" fill="#fff"><path d="m5.421 23.559c0 10.891 7.358 15.983 14.709 19.803 8.205 4.239 16.124 4.663 16.124 9.899 0 4.807-4.245 5.231-7.775 5.231-8.064 0-17.963-8.344-17.963-8.344l-10.183 17.11s10.464 9.76 28.002 9.76c14.846 0 34.364-3.391 34.364-24.749 0-14.847-12.446-20.222-22.061-23.194-6.224-1.98-11.311-3.112-11.311-6.927 0-3.396 2.259-4.385 7.775-4.385 7.634 0 16.121 4.524 16.121 4.524l8.205-16.407s-10.323-5.655-24.326-5.655c-19.096 0-31.681 8.487-31.681 23.334" fill="#fff" fill-rule="evenodd"/></mask><mask id="j" fill="#fff"><path d="m11.109.333v27.012h-10.467v19.094h10.467v27.862c0 12.866 4.809 27.717 24.747 27.717 10.323 0 18.386-4.524 18.386-4.524l-6.224-20.225s-2.967 2.262-6.22 2.262c-3.959 0-5.66-3.25-5.66-10.042v-23.05h15.276v-19.094h-15.276v-27.012z" fill="#fff" fill-rule="evenodd"/></mask><mask id="k" fill="#fff"><path d="m.49 38.694c0 22.345 17.534 38.324 43.696 38.324 25.032 0 43.275-15.979 43.275-38.324 0-22.63-19.231-38.469-43.275-38.469-24.467 0-43.696 15.839-43.696 38.469m26.585 0c0-10.043 7.495-17.114 16.969-17.114 9.337 0 16.828 7.071 16.828 17.114 0 9.898-7.067 16.97-16.828 16.97-10.182 0-16.969-7.072-16.969-16.97" fill="#fff" fill-rule="evenodd"/></mask><mask id="l" fill="#fff"><path d="m26.222 12.811h-.284v-10.466h-25.033v72.553h25.033v-38.184c0-1.84 1.84-14.71 14.851-14.71 8.342 0 13.011 3.959 13.011 3.959l10.467-21.214s-6.507-4.524-15.839-4.524c-14.286 0-22.206 12.586-22.206 12.586" fill="#fff" fill-rule="evenodd"/></mask><mask id="m" fill="#fff"><path d="m.247 38.694c0 21.069 17.961 38.324 39.879 38.324 16.123 0 29.418-5.232 37.618-18.95l-18.103-9.052c-6.079 6.508-9.614 8.06-17.674 8.06-6.364 0-15.698-3.815-15.698-14.991h52.611c.138-.847.138-2.403.138-3.391 0-25.458-16.83-38.469-38.892-38.469-21.918 0-39.879 17.254-39.879 38.469m40.588-22.206c7.356 0 12.587 4.103 13.718 11.738h-27.576c.423-6.646 5.231-11.738 13.858-11.738" fill="#fff" fill-rule="evenodd"/></mask><mask id="n" fill="#fff"><path d="m.028 10.274c0 5.329 4.322 9.653 9.651 9.653 5.332 0 9.654-4.324 9.654-9.653 0-5.329-4.322-9.655-9.654-9.655-5.329 0-9.651 4.326-9.651 9.655" fill="#fff" fill-rule="evenodd"/></mask><g fill="none" fill-rule="evenodd"><path d="m841.8955 141.752c0-33.731-22.832-56.392-56.814-56.392-10.986 0-21.23 3.061-29.986 8.273-.226-.173-.413-.379-.646-.542-1.855-1.292-11.839-7.731-26.069-7.731-6.165 0-11.575 1.295-16.226 3.244-1.949-.727-4.061-1.124-6.263-1.124h-25.033c-7.032 0-13.062 4.09-15.994 9.987-10.409-7.626-23.767-12.107-38.725-12.107-10.238 0-19.71 2.112-28.041 5.827 7.469-9.362 11.727-21.068 11.727-34.075 0-32.148-26.309-56.39-61.199-56.39-14.232 0-27.002 4.03-37.211 10.903v-.002c-2.203-1.82-14.268-10.901-35.754-10.901-16.208 0-31.089 6.892-41.747 17.733-9.503-11.71-25.084-17.733-40.55-17.733-5.23 0-10.457 1.029-15.493 3.005-1.757-.573-3.632-.885-5.579-.885h-25.032c-6.232 0-11.711 3.187-14.924 8.014-9.128-6.68-20.803-10.134-32.443-10.134-5.23 0-10.458 1.029-15.495 3.005-1.755-.573-3.63-.885-5.577-.885h-25.032c-3.084 0-5.943.851-8.479 2.225-2.536-1.374-5.395-2.225-8.48-2.225h-25.031c-1.924 0-3.775.304-5.512.864-5.644-1.973-11.769-2.984-18.248-2.984-15.012 0-28.4 6.103-38.095 16.099-8.174-10.07-21.017-16.099-36.56-16.099-8.05 0-15.972 2.386-23.279 6.903-7.358-4.46-16.304-6.903-26.078-6.903-5.231 0-10.457 1.029-15.494 3.005-1.757-.573-3.632-.885-5.578-.885h-25.032c-9.9 0-17.924 8.024-17.924 17.923v72.553c0 9.899 8.024 17.923 17.924 17.923h25.032c4.694 0 8.967-1.804 12.162-4.758 3.195 2.954 7.468 4.758 12.163 4.758h25.032c4.694 0 8.967-1.804 12.163-4.758 3.195 2.954 7.467 4.758 12.162 4.758h25.032c6.28 0 11.788-3.243 14.989-8.133 8.792 6.457 19.574 10.254 31.381 10.254 6.175 0 12.217-1.116 17.838-3.221 1.934.712 4.023 1.1 6.204 1.1h24.749c3.085 0 5.944-.851 8.48-2.224 2.536 1.373 5.395 2.224 8.479 2.224h25.032c5.624 0 10.644-2.59 13.93-6.644 3.287 4.054 8.307 6.644 13.931 6.644h25.032c2.799 0 5.414-.696 7.773-1.839 2.359 1.143 4.975 1.839 7.773 1.839h25.032c5.624 0 10.644-2.59 13.929-6.642 3.287 4.052 8.306 6.642 13.93 6.642h25.034c6.822 0 12.685-3.856 15.714-9.467 2.948 2.175 6.131 4.055 9.456 5.671-2.847 5.143-4.36 10.787-4.741 16.485-13.789 1.509-24.556 13.217-24.556 27.403 0 12.979 9.024 23.866 21.124 26.783.942 1.949 2.218 3.761 3.878 5.309 1.6 1.491 16.317 14.575 40.228 14.575 21.544 0 34.255-6.445 41.739-14.481 7.456 9.203 18.759 14.481 32.781 14.481 14.282 0 25.127-5.679 27.157-6.815 1.159-.649 2.187-1.447 3.144-2.307 9.759 5.823 21.712 9.122 35.03 9.122 14.963 0 28.327-4.474 38.736-12.086 2.941 5.885 8.958 9.965 15.983 9.965h25.033c9.9 0 17.924-8.023 17.924-17.923v-33.548c1.151 1.031 2.411 1.747 3.722 2.326 2.602 28.686 27.398 51.266 57.544 51.266 30.131 0 45.454-15.053 52.999-27.679 2.56-4.282 3.22-9.432 1.82-14.22-.184-.622-.396-1.233-.642-1.828 1.105-1.868 1.887-3.96 2.256-6.208.354-2.124.381-4.197.381-6.313" fill="#313046" mask="url(#h)" transform="translate(0 -.722)"/><path d="m5.421 23.559c0 10.891 7.358 15.983 14.709 19.803 8.205 4.239 16.124 4.663 16.124 9.899 0 4.807-4.245 5.231-7.775 5.231-8.064 0-17.963-8.344-17.963-8.344l-10.183 17.11s10.464 9.76 28.002 9.76c14.846 0 34.364-3.391 34.364-24.749 0-14.847-12.446-20.222-22.061-23.194-6.224-1.98-11.311-3.112-11.311-6.927 0-3.396 2.259-4.385 7.775-4.385 7.634 0 16.121 4.524 16.121 4.524l8.205-16.407s-10.323-5.655-24.326-5.655c-19.096 0-31.681 8.487-31.681 23.334" fill="url(#b)" mask="url(#i)" transform="translate(458 102.278)"/><path d="m11.109.333v27.012h-10.467v19.094h10.467v27.862c0 12.866 4.809 27.717 24.747 27.717 10.323 0 18.386-4.524 18.386-4.524l-6.224-20.225s-2.967 2.262-6.22 2.262c-3.959 0-5.66-3.25-5.66-10.042v-23.05h15.276v-19.094h-15.276v-27.012z" fill="url(#c)" mask="url(#j)" transform="translate(525 77.278)"/><path d="m.49 38.694c0 22.345 17.534 38.324 43.696 38.324 25.032 0 43.275-15.979 43.275-38.324 0-22.63-19.231-38.469-43.275-38.469-24.467 0-43.696 15.839-43.696 38.469m26.585 0c0-10.043 7.495-17.114 16.969-17.114 9.337 0 16.828 7.071 16.828 17.114 0 9.898-7.067 16.97-16.828 16.97-10.182 0-16.969-7.072-16.969-16.97" fill="url(#d)" mask="url(#k)" transform="translate(582 102.278)"/><path d="m26.222 12.811h-.284v-10.466h-25.033v72.553h25.033v-38.184c0-1.84 1.84-14.71 14.851-14.71 8.342 0 13.011 3.959 13.011 3.959l10.467-21.214s-6.507-4.524-15.839-4.524c-14.286 0-22.206 12.586-22.206 12.586" fill="url(#e)" mask="url(#l)" transform="translate(680 102.278)"/><path d="m.247 38.694c0 21.069 17.961 38.324 39.879 38.324 16.123 0 29.418-5.232 37.618-18.95l-18.103-9.052c-6.079 6.508-9.614 8.06-17.674 8.06-6.364 0-15.698-3.815-15.698-14.991h52.611c.138-.847.138-2.403.138-3.391 0-25.458-16.83-38.469-38.892-38.469-21.918 0-39.879 17.254-39.879 38.469m40.588-22.206c7.356 0 12.587 4.103 13.718 11.738h-27.576c.423-6.646 5.231-11.738 13.858-11.738" fill="url(#f)" mask="url(#m)" transform="translate(745 102.278)"/><path d="m.028 10.274c0 5.329 4.322 9.653 9.651 9.653 5.332 0 9.654-4.324 9.654-9.653 0-5.329-4.322-9.655-9.654-9.655-5.329 0-9.651 4.326-9.651 9.655" fill="url(#g)" mask="url(#n)" transform="translate(439 140.278)"/><g fill="#fff" transform="translate(17 17.278)"><path d="m.9702 2.7065h25.031v7.638h.284c5.658-5.658 12.869-9.758 20.789-9.758 9.616 0 20.223 3.535 25.315 13.293 7.637-9.193 16.123-13.293 24.042-13.293 13.295 0 28.285 6.646 28.285 26.87v47.802h-25.031v-41.013c0-7.213-3.82-13.577-12.73-13.577-7.919 0-11.312 5.798-11.596 11.314v43.276h-25.032v-41.013c0-7.213-3.818-13.577-12.729-13.577-8.343 0-11.597 6.364-11.597 12.161v42.429h-25.031z"/><path d="m178.5815 56.0244c9.759 0 16.829-7.072 16.829-16.971 0-10.041-7.496-17.112-16.829-17.112-9.475 0-16.971 7.071-16.971 17.112 0 9.899 6.788 16.971 16.971 16.971m-7.495-55.438c9.756 0 17.818 3.252 23.76 9.052v-6.932h25.031v72.552h-24.75v-8.204h-.281c-5.376 5.942-13.862 10.325-23.76 10.325-21.214 0-36.063-17.112-36.063-38.326s14.849-38.467 36.063-38.467"/><path d="m236.8369 2.7065h25.031v7.638h.284c5.658-5.658 12.869-9.758 20.788-9.758 13.295 0 31.821 6.646 31.821 26.87v47.802h-25.031v-41.013c0-7.213-4.95-14.143-13.011-14.143-7.496 0-14.851 6.93-14.851 14.143v41.013h-25.031z"/><path d="m330.3081 2.7065h25.031v7.638h.284c5.658-5.658 12.869-9.758 20.788-9.758 13.295 0 31.821 6.646 31.821 26.87v47.802h-25.031v-41.013c0-7.213-4.95-14.143-13.011-14.143-7.496 0-14.851 6.93-14.851 14.143v41.013h-25.031z"/><path d="m445.1338 38.9116c0 10.041 7.778 17.962 17.254 17.962 7.495 0 12.163-3.396 12.163-3.396l8.482 17.396s-8.202 6.506-24.325 6.506c-20.929 0-40.164-16.97-40.164-38.184 0-21.356 19.094-38.609 40.164-38.609 16.123 0 24.325 6.788 24.325 6.788l-8.482 17.112s-4.668-3.393-12.163-3.393c-9.476 0-17.254 7.919-17.254 17.818"/><path d="m531.5332 56.0244c9.759 0 16.83-7.072 16.83-16.971 0-10.041-7.495-17.112-16.83-17.112-9.475 0-16.971 7.071-16.971 17.112 0 9.899 6.788 16.971 16.971 16.971m.141-55.438c24.041 0 43.275 15.839 43.275 38.467 0 22.346-18.242 38.326-43.275 38.326-26.162 0-43.701-15.98-43.701-38.326 0-22.628 19.235-38.467 43.701-38.467"/></g></g></svg>