<svg data-v-8c8ec4aa="" xmlns="http://www.w3.org/2000/svg" fill="none" viewBox="0 0 139 28" class="h-6"><rect width="28" height="28" fill="#60F948" rx="7"></rect><path fill="#000" d="m21 8.215-5.166-1.384-.798 2.98-.586 2.186 5.166 1.384z"></path><path fill="#000" d="M7.626 20.936 7.03 10.257l5.34-.298.298 5.34 5.34-.298.297 5.34z"></path><path fill="#FBF8FF" d="M44.624 22.24q-2.04 0-3.504-.696-1.44-.696-2.616-2.088l2.16-2.16a5.6 5.6 0 0 0 1.728 1.536q.984.528 2.4.528 1.272 0 2.016-.504.768-.504.768-1.392 0-.768-.432-1.248t-1.152-.816a11 11 0 0 0-1.56-.6 28 28 0 0 1-1.704-.648 8 8 0 0 1-1.56-.888 4.2 4.2 0 0 1-1.128-1.392q-.432-.864-.432-2.16 0-1.536.744-2.616t2.04-1.656 2.928-.576q1.728 0 3.12.648t2.28 1.68l-2.16 2.16q-.744-.816-1.536-1.2-.768-.384-1.752-.384-1.128 0-1.776.432t-.648 1.248q0 .696.432 1.128t1.128.744q.72.312 1.56.6.864.288 1.704.648.864.36 1.56.936.72.576 1.152 1.488.432.888.432 2.208 0 2.352-1.656 3.696t-4.536 1.344M60.448 22l-4.488-5.976 4.464-5.616h3.624l-5.232 6.336.12-1.536L64.288 22zm-7.392 0V4.648H56.2V22zm12.258 0V10.408h3.168V22zm1.584-13.464q-.768 0-1.272-.504a1.8 1.8 0 0 1-.504-1.296q0-.744.504-1.272t1.272-.528q.792 0 1.272.528.504.528.504 1.272 0 .768-.504 1.296-.48.504-1.272.504M79.067 22v-6.648q0-1.032-.648-1.68t-1.68-.648q-.672 0-1.2.288a2.17 2.17 0 0 0-.84.816q-.288.528-.288 1.224l-1.224-.624q0-1.368.576-2.376.6-1.032 1.632-1.608 1.056-.576 2.376-.576 1.272 0 2.28.648 1.008.624 1.584 1.656.576 1.008.576 2.184V22zm-7.8 0V10.408h3.144V22zm16.045 0v-2.904h4.296q1.632 0 2.856-.672a4.8 4.8 0 0 0 1.896-1.944q.696-1.248.696-2.952 0-1.656-.696-2.88a4.8 4.8 0 0 0-1.92-1.92q-1.224-.696-2.832-.696H87.24V5.128h4.416q1.872 0 3.456.624 1.608.624 2.784 1.776 1.2 1.128 1.848 2.664.672 1.536.672 3.36t-.672 3.384a8.2 8.2 0 0 1-1.824 2.688 8.3 8.3 0 0 1-2.784 1.752Q93.552 22 91.704 22zm-2.232 0V5.128h3.264V22zm23.137.24q-1.824 0-3.24-.768a6.1 6.1 0 0 1-2.256-2.16q-.816-1.368-.816-3.12 0-1.728.792-3.072a5.96 5.96 0 0 1 2.208-2.16q1.392-.816 3.096-.816 1.68 0 2.952.768a5.2 5.2 0 0 1 2.016 2.064q.744 1.296.744 2.952 0 .312-.048.648a5 5 0 0 1-.12.72l-9.744.024v-2.352l8.28-.024-1.272.984q-.048-1.032-.384-1.728a2.24 2.24 0 0 0-.936-1.056q-.6-.384-1.488-.384-.936 0-1.632.432a2.75 2.75 0 0 0-1.08 1.176q-.36.744-.36 1.776 0 1.056.384 1.848.408.768 1.152 1.2.744.408 1.728.408.888 0 1.608-.288.72-.312 1.248-.912l1.848 1.848a5.35 5.35 0 0 1-2.064 1.488q-1.2.504-2.616.504m12.913 0q-1.776 0-3.192-.792a5.9 5.9 0 0 1-2.232-2.16q-.816-1.368-.816-3.072 0-1.728.816-3.096a5.9 5.9 0 0 1 2.232-2.16q1.44-.816 3.192-.816 1.368 0 2.52.504a5.7 5.7 0 0 1 1.992 1.44l-2.016 2.04a3 3 0 0 0-1.104-.768 3.5 3.5 0 0 0-1.392-.264q-.864 0-1.56.408a2.9 2.9 0 0 0-1.08 1.08q-.384.672-.384 1.608 0 .912.384 1.632.408.696 1.08 1.104.696.384 1.56.384.792 0 1.416-.264.648-.288 1.104-.816l2.04 2.04a6.1 6.1 0 0 1-2.04 1.464 6.2 6.2 0 0 1-2.52.504m13.732-.24-4.488-5.976 4.464-5.616h3.624l-5.232 6.336.12-1.536L138.702 22zm-7.392 0V4.648h3.144V22z"></path></svg>